# xmcd
#
# Track frame offsets:
#	150
#	15451
#	34148
#	48521
#	65043
#	83154
#	100314
#	113060
#	128668
#	147108
#	162976
#	180679
#	197729
#	216154
#	233638
#
# Disc length: 3290 seconds
#
# Revision: 1
# Processed by: cddbd v1.5.2PL0 Copyright (c) Steve Scherf et al.
# Submitted via: audiograbber 1.83.01
#
DISCID=cc0cd80f
DTITLE=Various Artist - CDX Volume 648 (May 22, 2017)
DYEAR=2017
DGENRE=Country
TTITLE0=Lauren Alaina - Doin' Fine
TTITLE1=Chris Stapleton - Either Way
TTITLE2=Chris Janson - Fix A Drink 
TTITLE3=Gary Allan - Mess Me Up
TTITLE4=RG Dempster - Blue Skies, Yellow Sun
TTITLE5=Sophie Noelle - Grapevine, Texas
TTITLE6=Grant Maloy Smith - I Come From America
TTITLE7=Blake Torrey - Last Night
TTITLE8=Melanie Meriney - Lifeboat
TTITLE9=Melissa Ramski - Masquerade 
TTITLE10=Scott Coner and Tanya Tucker - Maybe She Lied
TTITLE11=Art Carter - Mighty Mississippi
TTITLE12=Cherie Brennan - Mystery
TTITLE13=Andy Ross - Playing In The Mud
TTITLE14=Risa Binder - You Haul 
EXTD=
EXTT0=
EXTT1=
EXTT2=
EXTT3=
EXTT4=
EXTT5=
EXTT6=
EXTT7=
EXTT8=
EXTT9=
EXTT10=
EXTT11=
EXTT12=
EXTT13=
EXTT14=
PLAYORDER=
